<svg width="201" height="46" viewBox="0 0 201 46" fill="none" xmlns="http://www.w3.org/2000/svg">
<path fill-rule="evenodd" clip-rule="evenodd" d="M44 22.5C44 34.9264 39.5228 45 34 45C33.3187 45 32.6532 44.8467 32.0102 44.5545C31.2461 44.4149 30.4836 44.1412 29.75 43.7176L18.0147 36.9423C17.7227 41.6571 16.1531 45.1513 13.9796 45.3328C11.2278 45.5625 8.54992 40.3949 7.99848 33.7904C7.92163 32.87 7.89013 31.9703 7.90029 31.1027L3.5 28.5622C-1.16666 25.8679 -1.16667 19.1321 3.5 16.4378L29.75 1.28238C30.4836 0.858826 31.2461 0.585088 32.0101 0.445462C32.6532 0.15332 33.3186 0 34 0C39.5228 0 44 10.0736 44 22.5Z" fill="url(#paint0_linear_238_75)"/>
<path d="M37.5 19.9019C39.5 21.0566 39.5 23.9434 37.5 25.0981L32.25 28.1292C30.25 29.2839 27.75 27.8405 27.75 25.5311V19.4689C27.75 17.1595 30.25 15.7161 32.25 16.8708L37.5 19.9019Z" fill="white"/>
<path d="M66.18 17.45C70.0767 17.45 72.025 18.8733 72.025 21.72C72.025 23.4933 71.2667 24.905 69.75 25.955C68.2567 26.9817 66.0167 27.5767 63.03 27.74C62.6567 27.7633 62.0617 27.775 61.245 27.775C61.175 28.265 61.14 28.755 61.14 29.245C61.14 30.2717 61.3617 31.0417 61.805 31.555C62.2483 32.045 62.9833 32.29 64.01 32.29C64.9433 32.29 65.8533 32.0917 66.74 31.695C67.65 31.2983 68.3267 30.7617 68.77 30.085C69.3533 30.435 69.645 30.995 69.645 31.765C69.645 32.745 69.2833 33.62 68.56 34.39C67.8367 35.1367 66.8683 35.7083 65.655 36.105C64.465 36.5017 63.205 36.7 61.875 36.7C59.5417 36.7 57.7333 36.07 56.45 34.81C55.19 33.5267 54.56 31.6017 54.56 29.035C54.56 26.935 54.9917 25.01 55.855 23.26C56.7183 21.51 58.0133 20.11 59.74 19.06C61.49 17.9867 63.6367 17.45 66.18 17.45ZM65.41 19.235C64.57 19.235 63.8 19.8183 63.1 20.985C62.4233 22.1283 61.8867 23.89 61.49 26.27C63.0767 26.27 64.3367 25.7917 65.27 24.835C66.2033 23.8783 66.67 22.6417 66.67 21.125C66.67 20.5183 66.5767 20.0517 66.39 19.725C66.2033 19.3983 65.8767 19.235 65.41 19.235ZM80.2825 20.88C81.4725 18.5933 83.6075 17.45 86.6875 17.45C90.0475 17.45 91.7275 18.815 91.7275 21.545C91.7275 22.245 91.6342 23.0733 91.4475 24.03C91.2609 24.9633 91.0042 26.095 90.6775 27.425C90.3742 28.6383 90.1525 29.6067 90.0125 30.33C89.8725 31.03 89.8025 31.625 89.8025 32.115C89.8025 33.305 90.3509 33.97 91.4475 34.11C91.1909 34.95 90.6309 35.5917 89.7675 36.035C88.9042 36.4783 87.9592 36.7 86.9325 36.7C85.7192 36.7 84.7392 36.3967 83.9925 35.79C83.2692 35.16 82.9075 34.2617 82.9075 33.095C82.9075 32.5117 82.9775 31.8233 83.1175 31.03C83.2809 30.2367 83.5375 29.0933 83.8875 27.6C84.2142 26.2233 84.4709 25.08 84.6575 24.17C84.8442 23.26 84.9375 22.49 84.9375 21.86C84.9375 20.7167 84.5292 20.145 83.7125 20.145C82.8492 20.145 82.1725 20.6467 81.6825 21.65C81.2159 22.63 80.8309 23.8667 80.5275 25.36L78.4625 36L71.4625 36.7L75.1025 18.15L80.8425 17.45L80.2825 20.88ZM110.543 30.785C110.426 31.415 110.368 31.905 110.368 32.255C110.368 32.745 110.508 33.165 110.788 33.515C111.068 33.865 111.476 34.0633 112.013 34.11C111.756 34.95 111.196 35.5917 110.333 36.035C109.47 36.4783 108.548 36.7 107.568 36.7C106.751 36.7 106.016 36.525 105.363 36.175C104.733 35.8483 104.301 35.3583 104.068 34.705C103.485 35.335 102.715 35.825 101.758 36.175C100.825 36.525 99.798 36.7 98.678 36.7C96.6947 36.7 95.2597 36.1167 94.373 34.95C93.5097 33.7833 93.078 32.0683 93.078 29.805C93.078 27.4483 93.5097 25.3367 94.373 23.47C95.2364 21.6033 96.4847 20.1333 98.118 19.06C99.7747 17.9867 101.746 17.45 104.033 17.45C104.896 17.45 105.643 17.5317 106.273 17.695L107.393 11.5L114.323 10.8L110.543 30.785ZM105.713 20.18C105.48 19.97 105.188 19.8183 104.838 19.725C104.488 19.6083 104.161 19.55 103.858 19.55C103.228 19.55 102.68 19.795 102.213 20.285C101.77 20.775 101.373 21.6033 101.023 22.77C100.673 23.9133 100.346 25.5 100.043 27.53C99.763 29.4433 99.623 31.0183 99.623 32.255C99.623 32.9783 99.7047 33.5267 99.868 33.9C100.055 34.2733 100.416 34.46 100.953 34.46C101.793 34.46 102.446 34.0283 102.913 33.165C103.403 32.2783 103.753 31.2517 103.963 30.085L105.713 20.18ZM125.405 17.45C127.832 17.45 129.664 18.0683 130.9 19.305C132.16 20.5183 132.79 22.4083 132.79 24.975C132.79 27.1683 132.347 29.1517 131.46 30.925C130.574 32.6983 129.279 34.11 127.575 35.16C125.895 36.1867 123.9 36.7 121.59 36.7C116.62 36.7 114.135 34.1567 114.135 29.07C114.135 26.8767 114.579 24.905 115.465 23.155C116.375 21.3817 117.682 19.9933 119.385 18.99C121.089 17.9633 123.095 17.45 125.405 17.45ZM124.845 19.55C123.889 19.55 123.119 20.1683 122.535 21.405C121.975 22.6183 121.497 24.66 121.1 27.53C120.82 29.5367 120.68 31.1233 120.68 32.29C120.68 33.06 120.774 33.6433 120.96 34.04C121.17 34.4133 121.555 34.6 122.115 34.6C123.049 34.6 123.795 33.9933 124.355 32.78C124.939 31.5433 125.429 29.49 125.825 26.62C126.105 24.6133 126.245 23.0267 126.245 21.86C126.245 21.09 126.152 20.5183 125.965 20.145C125.779 19.7483 125.405 19.55 124.845 19.55ZM143.76 23.575C143.014 23.365 142.209 23.2017 141.345 23.085C140.505 22.945 139.782 22.875 139.175 22.875C137.565 22.875 136.492 23.3883 135.955 24.415C135.582 23.9717 135.29 23.435 135.08 22.805C134.87 22.175 134.765 21.545 134.765 20.915C134.765 19.7017 135.162 18.8267 135.955 18.29C136.749 17.73 137.81 17.45 139.14 17.45C139.864 17.45 140.68 17.52 141.59 17.66C142.524 17.8 143.084 17.8817 143.27 17.905C145.09 18.185 146.35 18.325 147.05 18.325C147.914 18.325 148.567 18.1967 149.01 17.94C149.617 18.5233 149.92 19.2233 149.92 20.04C149.92 20.7633 149.722 21.4167 149.325 22C148.952 22.56 148.415 23.0967 147.715 23.61L139.07 30.12C140.937 30.6567 142.477 30.925 143.69 30.925C144.39 30.925 145.079 30.8083 145.755 30.575C146.432 30.3417 146.98 29.9917 147.4 29.525C148.054 30.2717 148.38 31.24 148.38 32.43C148.38 33.83 147.949 34.8917 147.085 35.615C146.222 36.3383 145.067 36.7 143.62 36.7C142.71 36.7 141.485 36.525 139.945 36.175C138.359 35.8483 137.18 35.685 136.41 35.685C135.687 35.685 134.952 35.8017 134.205 36.035C133.412 35.5217 133.015 34.7167 133.015 33.62C133.015 32.22 133.715 30.96 135.115 29.84L143.76 23.575ZM159.585 23.575C158.839 23.365 158.034 23.2017 157.17 23.085C156.33 22.945 155.607 22.875 155 22.875C153.39 22.875 152.317 23.3883 151.78 24.415C151.407 23.9717 151.115 23.435 150.905 22.805C150.695 22.175 150.59 21.545 150.59 20.915C150.59 19.7017 150.987 18.8267 151.78 18.29C152.574 17.73 153.635 17.45 154.965 17.45C155.689 17.45 156.505 17.52 157.415 17.66C158.349 17.8 158.909 17.8817 159.095 17.905C160.915 18.185 162.175 18.325 162.875 18.325C163.739 18.325 164.392 18.1967 164.835 17.94C165.442 18.5233 165.745 19.2233 165.745 20.04C165.745 20.7633 165.547 21.4167 165.15 22C164.777 22.56 164.24 23.0967 163.54 23.61L154.895 30.12C156.762 30.6567 158.302 30.925 159.515 30.925C160.215 30.925 160.904 30.8083 161.58 30.575C162.257 30.3417 162.805 29.9917 163.225 29.525C163.879 30.2717 164.205 31.24 164.205 32.43C164.205 33.83 163.774 34.8917 162.91 35.615C162.047 36.3383 160.892 36.7 159.445 36.7C158.535 36.7 157.31 36.525 155.77 36.175C154.184 35.8483 153.005 35.685 152.235 35.685C151.512 35.685 150.777 35.8017 150.03 36.035C149.237 35.5217 148.84 34.7167 148.84 33.62C148.84 32.22 149.54 30.96 150.94 29.84L159.585 23.575ZM177.196 17.45C181.092 17.45 183.041 18.8733 183.041 21.72C183.041 23.4933 182.282 24.905 180.766 25.955C179.272 26.9817 177.032 27.5767 174.046 27.74C173.672 27.7633 173.077 27.775 172.261 27.775C172.191 28.265 172.156 28.755 172.156 29.245C172.156 30.2717 172.377 31.0417 172.821 31.555C173.264 32.045 173.999 32.29 175.026 32.29C175.959 32.29 176.869 32.0917 177.756 31.695C178.666 31.2983 179.342 30.7617 179.786 30.085C180.369 30.435 180.661 30.995 180.661 31.765C180.661 32.745 180.299 33.62 179.576 34.39C178.852 35.1367 177.884 35.7083 176.671 36.105C175.481 36.5017 174.221 36.7 172.891 36.7C170.557 36.7 168.749 36.07 167.466 34.81C166.206 33.5267 165.576 31.6017 165.576 29.035C165.576 26.935 166.007 25.01 166.871 23.26C167.734 21.51 169.029 20.11 170.756 19.06C172.506 17.9867 174.652 17.45 177.196 17.45ZM176.426 19.235C175.586 19.235 174.816 19.8183 174.116 20.985C173.439 22.1283 172.902 23.89 172.506 26.27C174.092 26.27 175.352 25.7917 176.286 24.835C177.219 23.8783 177.686 22.6417 177.686 21.125C177.686 20.5183 177.592 20.0517 177.406 19.725C177.219 19.3983 176.892 19.235 176.426 19.235ZM191.263 20.88C192.313 18.5933 194.098 17.45 196.618 17.45C198.018 17.45 199.091 17.8 199.838 18.5C200.585 19.2 200.958 20.2033 200.958 21.51C200.958 23.0033 200.503 24.2283 199.593 25.185C198.706 26.1183 197.575 26.585 196.198 26.585C195.755 26.585 195.335 26.5383 194.938 26.445C194.565 26.3283 194.285 26.1533 194.098 25.92C194.495 25.3833 194.833 24.7067 195.113 23.89C195.393 23.05 195.533 22.2917 195.533 21.615C195.533 20.635 195.171 20.145 194.448 20.145C193.771 20.145 193.165 20.6233 192.628 21.58C192.091 22.5133 191.671 23.89 191.368 25.71L189.688 36L182.478 36.7L186.048 18.15L191.788 17.45L191.263 20.88Z" fill="black"/>
<defs>
<linearGradient id="paint0_linear_238_75" x1="2.5" y1="9.5" x2="41" y2="40" gradientUnits="userSpaceOnUse">
<stop stop-color="#8122B3"/>
<stop offset="0.411484" stop-color="#C3216E"/>
<stop offset="1" stop-color="#FFBA49"/>
</linearGradient>
</defs>
</svg>
